# xmcd
#
# Track frame offsets:
#	150
#	10060
#	24780
#	36207
#	46936
#	56398
#	68828
#	78832
#	90529
#	101873
#	112620
#	124248
#	137669
#	149489
#	159887
#	172040
#	182107
#	192960
#	203135
#	214323
#	225066
#	235866
#	246082
#
# Disc length: 3444 seconds
#
# Revision: 0
# Processed by: cddbd v1.5.1PL2 Copyright (c) Steve Scherf et al.
# Submitted via: EasyCDDAExtractor 4.6.9.1
#
DISCID=270d7217
DTITLE=Maddox Brothers And Rose - The Most Colorful Hillbilly Band In America 
DTITLE=CD3
DYEAR=1998
DGENRE=Country
TTITLE0=Words Are So Easy To Say
TTITLE1=Wild Wind
TTITLE2=Hummingbird
TTITLE3=When The Sun Goes Down
TTITLE4=I'll Find Her
TTITLE5=It's A Dark, Dark Place
TTITLE6=Away This Side Of Heaven
TTITLE7=I Wish You Would
TTITLE8=Let This Be The Last Time
TTITLE9=Old Black Choo-Choo
TTITLE10=Tall Man
TTITLE11=Hey Little Dreamboat
TTITLE12=Burrito Joe
TTITLE13=False Hearted
TTITLE14=By The Sweat Of My Brow
TTITLE15=Ugly And Slouchy
TTITLE16=Paul Bunyan Love
TTITLE17=The Death Of Rock And Roll
TTITLE18=Your Sweet, Mean Heart
TTITLE19=I'll Go Steppin' Too
TTITLE20=Did You Ever Come Home
TTITLE21=Looky There Over There
TTITLE22=Let Those Brown Eyes Smile At Me
EXTD=
EXTT0=
EXTT1=
EXTT2=
EXTT3=
EXTT4=
EXTT5=
EXTT6=
EXTT7=
EXTT8=
EXTT9=
EXTT10=
EXTT11=
EXTT12=
EXTT13=
EXTT14=
EXTT15=
EXTT16=
EXTT17=
EXTT18=
EXTT19=
EXTT20=
EXTT21=
EXTT22=
PLAYORDER=
